<svg width="55" height="33" viewBox="0 0 55 33" fill="none" xmlns="http://www.w3.org/2000/svg">
<path d="M2.41884 30.0418C2.88226 30.3367 3.41323 30.6173 4.00938 30.8847C4.65013 31.1834 5.42502 31.4327 6.32647 31.6376C7.24506 31.8463 8.20236 31.95 9.19728 31.95C12.0783 31.95 14.3841 31.2188 16.0437 29.6899C17.7226 28.1819 18.5473 26.1495 18.5473 23.65C18.5473 21.431 17.7291 19.5744 16.1007 18.1174C14.4673 16.656 12.2977 15.95 9.64728 15.95C9.28913 15.95 8.94531 15.967 8.61619 16.0016L8.77342 15.15H16.8473H17.3473V14.65V9.1V8.6H16.8473H4.09728H3.66611L3.60271 9.02648L1.95271 20.1265L1.90324 20.4593L2.19291 20.6305L5.49291 22.5805L5.79359 22.7581L6.0639 22.537L6.37376 22.2835C6.56813 22.1575 6.88073 22.0077 7.33284 21.8382C7.76055 21.6778 8.18121 21.6 8.59728 21.6C9.49159 21.6 10.1037 21.7964 10.5031 22.119C10.8886 22.4303 11.0973 22.8677 11.0973 23.5C11.0973 24.1323 10.8886 24.5697 10.5031 24.881C10.1037 25.2036 9.49159 25.4 8.59728 25.4C7.71511 25.4 6.82947 25.25 5.93841 24.9467L5.93844 24.9466L5.9293 24.9437C4.99172 24.6444 4.4101 24.419 4.13819 24.2674C3.84706 24.0926 3.63604 23.9541 3.49728 23.85L2.98169 23.4633L2.73527 24.0588L0.935269 28.4088L0.80758 28.7174L1.04372 28.9536L1.34372 29.2536L1.35214 29.262L1.36094 29.27C1.61208 29.4983 1.96983 29.7561 2.41884 30.0418ZM18.6408 31.4214L18.3813 32.1H19.1078H24.5078H24.8519L24.9748 31.7786L36.6749 1.17857L36.9343 0.5H36.2078H30.8078H30.4637L30.3408 0.821431L18.6408 31.4214ZM44.0361 16.0016L44.1933 15.15H52.2672H52.7672V14.65V9.1V8.6H52.2672H39.5172H39.086L39.0226 9.02648L37.3726 20.1265L37.3232 20.4593L37.6128 20.6305L40.9128 22.5805L41.2135 22.7581L41.4838 22.537L41.7937 22.2835C41.988 22.1575 42.3006 22.0077 42.7528 21.8382C43.1805 21.6778 43.6011 21.6 44.0172 21.6C44.9115 21.6 45.5236 21.7964 45.923 22.119C46.3085 22.4303 46.5172 22.8677 46.5172 23.5C46.5172 24.1323 46.3085 24.5697 45.923 24.881C45.5236 25.2036 44.9115 25.4 44.0172 25.4C43.135 25.4 42.2494 25.25 41.3583 24.9467L41.3584 24.9466L41.3492 24.9437C40.4116 24.6444 39.83 24.419 39.5581 24.2674C39.267 24.0926 39.056 23.9541 38.9172 23.85L38.4016 23.4633L38.1552 24.0588L36.3552 28.4088L36.2275 28.7174L36.4636 28.9536L36.7636 29.2536L36.7721 29.262L36.7809 29.27C37.032 29.4983 37.3898 29.7561 37.8388 30.0418C38.3022 30.3367 38.8332 30.6174 39.4294 30.8848C40.0701 31.1834 40.845 31.4327 41.7464 31.6376C42.665 31.8463 43.6223 31.95 44.6172 31.95C47.4983 31.95 49.8041 31.2187 51.4637 29.6898C53.1426 28.1819 53.9672 26.1494 53.9672 23.65C53.9672 21.431 53.149 19.5744 51.5206 18.1174C49.8872 16.656 47.7177 15.95 45.0672 15.95C44.7091 15.95 44.3652 15.967 44.0361 16.0016Z" fill="#F8A4A4" stroke="#454444"/>
</svg>
